<svg xmlns:xlink="http://www.w3.org/1999/xlink" xmlns="http://www.w3.org/2000/svg" width="512" height="512" viewBox="0 0 512 512" style="overflow: visible;" data-bbox="66.31415241057545 220.58597649628854 397.68584758942455 76.4217995534782"><defs transform="matrix(1, 0, 0, 1, 0, 0)" data-uid="o_fcb2i77jl_8"><linearGradient x1="0%" y1="50%" x2="100%" y2="50%" id="o_fcb2i77jl_5" gradientUnits="userSpaceOnUse" data-uid="o_fcb2i77jl_9"><stop offset="100%" stop-color="rgb(9, 134, 255)" stop-opacity="1.00" data-uid="o_fcb2i77jl_10"></stop><stop offset="100%" stop-color="rgb(8, 109, 227)" stop-opacity="0.00" data-uid="o_fcb2i77jl_11"></stop></linearGradient><linearGradient x1="0%" y1="50%" x2="100%" y2="50%" id="o_fcb2i77jl_6" gradientUnits="userSpaceOnUse" data-uid="o_fcb2i77jl_12"><stop offset="100%" stop-color="rgb(0, 0, 0)" stop-opacity="1.00" data-uid="o_fcb2i77jl_13"></stop><stop offset="100%" stop-color="rgb(8, 109, 227)" stop-opacity="0.00" data-uid="o_fcb2i77jl_14"></stop></linearGradient><linearGradient x1="0%" y1="50%" x2="100%" y2="50%" id="o_fcb2i77jl_5" gradientUnits="userSpaceOnUse" data-uid="o_fcb2i77jl_9"><stop offset="100%" stop-color="rgb(9, 134, 255)" stop-opacity="1.00" data-uid="o_fcb2i77jl_10"></stop><stop offset="100%" stop-color="rgb(8, 109, 227)" stop-opacity="0.00" data-uid="o_fcb2i77jl_11"></stop></linearGradient><linearGradient x1="0%" y1="50%" x2="100%" y2="50%" id="o_fcb2i77jl_6" gradientUnits="userSpaceOnUse" data-uid="o_fcb2i77jl_12"><stop offset="100%" stop-color="rgb(0, 0, 0)" stop-opacity="1.00" data-uid="o_fcb2i77jl_13"></stop><stop offset="100%" stop-color="rgb(8, 109, 227)" stop-opacity="0.00" data-uid="o_fcb2i77jl_14"></stop></linearGradient><linearGradient x1="0%" y1="50%" x2="100%" y2="50%" id="o_fcb2i77jl_5" gradientUnits="userSpaceOnUse" data-uid="o_fcb2i77jl_9"><stop offset="100%" stop-color="rgb(9, 134, 255)" stop-opacity="1.00" data-uid="o_fcb2i77jl_10"></stop><stop offset="100%" stop-color="rgb(8, 109, 227)" stop-opacity="0.00" data-uid="o_fcb2i77jl_11"></stop></linearGradient><linearGradient x1="0%" y1="50%" x2="100%" y2="50%" id="o_fcb2i77jl_6" gradientUnits="userSpaceOnUse" data-uid="o_fcb2i77jl_12"><stop offset="100%" stop-color="rgb(0, 0, 0)" stop-opacity="1.00" data-uid="o_fcb2i77jl_13"></stop><stop offset="100%" stop-color="rgb(8, 109, 227)" stop-opacity="0.00" data-uid="o_fcb2i77jl_14"></stop></linearGradient></defs><g data-icon="" fill="#0986FF" transform="matrix(0.14860127866268158, 0, 0, 0.14860127866268158, 66.31562805175781, 218.80276489257812)" stroke="#EAE4E4" stroke-width="0px" data-uid="o_fcb2i77jl_15"><path d="m93.56 55.27c-18.65 0-33.83 15.17-33.83 33.82s15.18 33.82 33.83 33.82c18.67 0 33.86-15.17 33.86-33.82s-15.19-33.82-33.86-33.82zm0 47.47c-7.53 0-13.66-6.12-13.66-13.65s6.13-13.65 13.66-13.65c7.55 0 13.69 6.12 13.69 13.65s-6.14 13.65-13.69 13.65z" fill="#0986FF" stroke="#EAE4E4" stroke-width="0px" data-uid="o_fcb2i77jl_16"></path><path d="m389.36 55.27h-89.43c-18.65 0-33.83 15.17-33.83 33.82s15.18 33.82 33.83 33.82h89.43c18.65 0 33.83-15.17 33.83-33.82s-15.18-33.82-33.83-33.82zm0 47.47h-89.43c-7.53 0-13.66-6.12-13.66-13.65s6.13-13.65 13.66-13.65h89.43c7.53 0 13.66 6.12 13.66 13.65s-6.13 13.65-13.66 13.65z" fill="#0986FF" stroke="#EAE4E4" stroke-width="0px" data-uid="o_fcb2i77jl_17"></path><path d="m181.24 55.27c-18.65 0-33.83 15.17-33.83 33.82s15.18 33.82 33.83 33.82c18.67 0 33.86-15.17 33.86-33.82s-15.19-33.82-33.86-33.82zm0 47.47c-7.53 0-13.66-6.12-13.66-13.65s6.13-13.65 13.66-13.65c7.55 0 13.69 6.12 13.69 13.65s-6.14 13.65-13.69 13.65z" fill="#0986FF" stroke="#EAE4E4" stroke-width="0px" data-uid="o_fcb2i77jl_18"></path><path d="m164.79 222.44c-5.41-1.3-10.86 2.05-12.15 7.46l-20.01 83.72c-1.29 5.42 2.05 10.86 7.46 12.15.788.19 1.58.279 2.35.279 4.56 0 8.69-3.11 9.8-7.74l20.01-83.72c1.3-5.42-2.05-10.86-7.46-12.15z" fill="#0986FF" stroke="#EAE4E4" stroke-width="0px" data-uid="o_fcb2i77jl_19"></path><path d="m201.82 315.94c1.92 1.71 4.32 2.55 6.7 2.55 2.78 0 5.54-1.14 7.54-3.38l28.28-31.74c4.67-5.19 4.67-13.33.029-18.49l-28.31-31.78c-3.71-4.16-10.08-4.53-14.24-.823-4.16 3.71-4.53 10.08-.823 14.24l24.58 27.59-24.58 27.59c-3.7 4.16-3.34 10.54.823 14.24z" fill="#0986FF" stroke="#EAE4E4" stroke-width="0px" data-uid="o_fcb2i77jl_20"></path><path d="m103.08 232.28c-4.16-3.7-10.53-3.33-14.24.823l-28.27 31.74c-4.67 5.2-4.67 13.33-.032 18.49l28.31 31.78c1.99 2.24 4.76 3.38 7.54 3.38 2.39 0 4.78-.842 6.7-2.55 4.16-3.7 4.53-10.08.823-14.24l-24.58-27.59 24.58-27.59c3.7-4.16 3.34-10.53-.825-14.24z" fill="#0986FF" stroke="#EAE4E4" stroke-width="0px" data-uid="o_fcb2i77jl_21"></path><path d="m489.39 339.53h-3.74c-1.96-6.35-4.5-12.48-7.6-18.34l2.67-2.68c4.27-4.24 6.62-9.9 6.63-15.95.009-6.06-2.34-11.74-6.61-16.01l-5.21-5.2v-214.8c0-30.08-21.23-54.55-47.32-54.55h-380.9c-26.09 0-47.32 24.47-47.32 54.55v281.85c0 30.08 21.23 54.55 47.32 54.55h59.17c5.57 0 10.08-4.51 10.08-10.08s-4.51-10.08-10.08-10.08h-59.17c-14.72 0-27.15-15.74-27.15-34.38v-182.95h435.19v101.91c-1.15-.177-2.31-.293-3.5-.293-.012 0-.024 0-.035 0-6.04.01-11.7 2.36-15.91 6.59l-2.73 2.71c-5.98-3.16-12.21-5.73-18.64-7.69v-3.59c0-12.46-10.14-22.6-22.61-22.6h-18.25c-12.45 0-22.58 10.14-22.58 22.6v3.84c-6.3 1.98-12.39 4.53-18.21 7.63l-2.61-2.6c-4.24-4.26-9.91-6.62-15.95-6.63-.011 0-.022 0-.034 0-6.04 0-11.72 2.35-15.98 6.61l-12.89 12.89c-4.27 4.27-6.62 9.96-6.61 16.01.009 6.04 2.36 11.71 6.6 15.91l2.79 2.79c-3.02 5.77-5.51 11.79-7.43 18.01h-3.83c-12.45 0-22.58 10.13-22.58 22.57v18.27c0 .812.05 1.61.129 2.4h-58.67c-5.57 0-10.08 4.51-10.08 10.08s4.51 10.08 10.08 10.08h81.13 3.87c1.95 6.28 4.47 12.35 7.55 18.15l-2.72 2.71c-8.77 8.82-8.76 23.14.021 31.92l12.9 12.9c4.24 4.26 9.91 6.62 15.95 6.63h.033c6.04 0 11.72-2.35 15.98-6.61l2.7-2.7c5.86 3.09 11.95 5.61 18.23 7.55v3.9c0 12.46 10.13 22.6 22.58 22.6h18.28c12.45 0 22.58-10.14 22.58-22.6v-3.88c6.33-1.95 12.45-4.49 18.3-7.58l2.69 2.68c4.24 4.26 9.9 6.62 15.95 6.63h.035c6.04 0 11.72-2.35 15.99-6.61l12.87-12.89c4.27-4.24 6.62-9.9 6.63-15.95.009-6.06-2.34-11.74-6.61-16.01l-2.69-2.69c3.07-5.81 5.59-11.88 7.54-18.16h3.81c12.47 0 22.61-10.13 22.61-22.57v-18.27c.002-12.45-10.14-22.57-22.61-22.57zm-469.22-194.26v-78.73c0-18.64 12.43-34.38 27.15-34.38h380.9c14.72 0 27.15 15.75 27.15 34.38v78.73h-435.19zm471.66 235.1c0 1.28-1.14 2.4-2.44 2.4h-11.53c-4.7 0-8.78 3.25-9.83 7.83-2.18 9.51-5.92 18.52-11.12 26.79-2.5 3.99-1.92 9.17 1.41 12.5l8.16 8.15c.61.61.7 1.34.7 1.72-.1.45-.119 1.11-.708 1.7l-12.88 12.91c-.611.61-1.34.702-1.72.702-.001 0-.002 0-.002 0-.458 0-1.12-.119-1.71-.714l-8.19-8.16c-3.33-3.32-8.51-3.89-12.49-1.39-8.29 5.21-17.34 8.96-26.91 11.14-4.59 1.05-7.85 5.13-7.85 9.83v11.61c0 1.3-1.13 2.43-2.41 2.43h-18.28c-1.28 0-2.41-1.14-2.41-2.43v-11.64c0-4.71-3.26-8.8-7.86-9.84-9.44-2.14-18.48-5.88-26.85-11.12-1.65-1.03-3.5-1.54-5.35-1.54-2.6 0-5.19 1.01-7.13 2.95l-8.16 8.15c-.611.61-1.34.702-1.72.702-.001 0-.002 0-.003 0-.457 0-1.12-.119-1.7-.701l-12.92-12.91c-.905-.904-.895-2.51-.012-3.39l8.19-8.16c3.35-3.33 3.93-8.54 1.41-12.53-5.21-8.25-8.95-17.26-11.13-26.77-1.05-4.58-5.13-7.83-9.83-7.83h-11.59c-1.31 0-2.41-1.1-2.41-2.4v-18.27c0-1.3 1.11-2.4 2.41-2.4h11.56c4.71 0 8.79-3.26 9.83-7.85 2.15-9.46 5.85-18.43 10.99-26.67 2.48-3.98 1.9-9.14-1.41-12.46l-8.25-8.27c-.56-.556-.678-1.22-.679-1.67 0-.38.09-1.11.7-1.72l12.89-12.89c.611-.61 1.34-.702 1.72-.702h.003c.457 1.12.119 1.71.714l8.13 8.1c3.34 3.33 8.54 3.9 12.52 1.37 8.24-5.22 17.27-9.01 26.82-11.24 4.56-1.07 7.79-5.13 7.79-9.82v-11.53c0-1.32 1.1-2.43 2.41-2.43h18.25c1.32 0 2.44 1.12 2.44 2.43v11.36c0 4.72 3.28 8.82 7.89 9.84 9.6 2.14 18.75 5.91 27.21 11.22 3.98 2.49 9.15 1.92 12.48-1.4l8.22-8.19c.558-.561 1.22-.679 1.68-.68h.003c.384 0 1.11.092 1.72.702l12.89 12.89c.61.61.7 1.34.7 1.72-.1.45-.119 1.11-.712 1.7l-8.16 8.19c-3.32 3.33-3.9 8.52-1.39 12.5 5.22 8.28 8.98 17.34 11.17 26.94 1.05 4.59 5.13 7.84 9.83 7.84h11.48c1.3 0 2.44 1.13 2.44 2.4z" fill="#0986FF" stroke="#EAE4E4" stroke-width="0px" data-uid="o_fcb2i77jl_22"></path><path d="m383.19 309.65c-33.98 0-61.63 27.63-61.63 61.6 0 33.95 27.65 61.57 61.63 61.57 33.97 0 61.6-27.62 61.6-61.57 0-33.97-27.63-61.6-61.6-61.6zm0 103.01c-22.86 0-41.46-18.57-41.46-41.4 0-22.85 18.6-41.43 41.46-41.43 22.85 0 41.43 18.59 41.43 41.43 0 22.83-18.59 41.4-41.43 41.4z" fill="#0986FF" stroke="#EAE4E4" stroke-width="0px" data-uid="o_fcb2i77jl_23"></path><path d="m151.45 382.78h-.198c-5.57 0-10.08 4.51-10.08 10.08s4.51 10.08 10.08 10.08h.198c5.57 0 10.08-4.51 10.08-10.08s-4.51-10.08-10.08-10.08z" fill="#0986FF" stroke="#EAE4E4" stroke-width="0px" data-uid="o_fcb2i77jl_24"></path></g><path text-anchor="start" offset="0" fill="#0986FF" space="preserve" font-scale="contain" font-size="48" font-family="Englebert" text="JeanPCode" font-style="normal" font-weight="400" data-fl-textpath="" transform="matrix(1.5231634378433228, 0, 0, 1.5231634378433228, 152.1338348388672, 282.86846923828125)" data-uid="o_fcb2i77jl_25" d="M 20.34-14.74L 20.34-14.74Q 20.02-10.76  19.24-7.86Q 18.47-4.97  17.16-3.08Q 15.84-1.2  13.95-0.28Q 12.05 0.63  9.45 0.63L 9.45 0.63Q 7.22 0.63  5.63-0.19Q 4.03-1.01  2.98-2.58Q 1.92-4.15  1.36-6.42Q 0.8-8.7  0.63-11.63L 0.63-11.63L 5.67-11.81Q 5.7-9.09  5.93-7.27Q 6.16-5.44  6.66-4.32Q 7.15-3.21  7.91-2.73Q 8.67-2.25  9.75-2.25L 9.75-2.25Q 11.13-2.25  12.19-3.19Q 13.24-4.13  13.96-6.22Q 14.67-8.32  15.04-11.7Q 15.4-15.07  15.4-19.92L 15.4-19.92Q 15.4-21.26  15.36-22.86Q 15.33-24.47  15.25-26.2Q 15.16-27.94  15-29.75Q 14.84-31.57  14.6-33.3L 14.6-33.3L 19.92-33.94Q 20.27-30  20.41-26.71Q 20.55-23.41  20.55-20.93L 20.55-20.93Q 20.55-19.45  20.52-18.32Q 20.48-17.18  20.44-16.38L 20.44-16.38Q 20.39-15.45  20.34-14.74ZM 44.343-13.78L 27.303-13.78Q 27.253-13.52  27.283-13.28Q 27.303-13.03  27.303-12.77L 27.303-12.77Q 27.303-10.43  27.773-8.82Q 28.243-7.22  28.953-6.16Q 29.673-5.11  30.523-4.55Q 31.383-3.98  32.133-3.71Q 32.883-3.45  33.423-3.4Q 33.963-3.35  34.083-3.35L 34.083-3.35Q 34.053-3.35  34.403-3.39Q 34.753-3.42  35.333-3.57Q 35.903-3.73  36.633-4.05Q 37.363-4.38  38.073-4.98Q 38.793-5.58  39.423-6.48Q 40.053-7.38  40.453-8.7L 40.453-8.7L 43.333-7.88Q 42.983-6.42  42.403-5.3Q 41.813-4.17  41.093-3.33Q 40.383-2.48  39.573-1.89Q 38.763-1.29  37.993-0.91L 37.993-0.91Q 36.163 0.02  34.083 0.19L 34.083 0.19Q 32.013 0.19  30.433-0.43Q 28.853-1.05  27.703-2.11Q 26.553-3.16  25.783-4.52Q 25.003-5.88  24.553-7.37Q 24.093-8.86  23.893-10.35Q 23.693-11.84  23.693-13.15L 23.693-13.15Q 23.693-14.37  23.833-15.82Q 23.973-17.27  24.373-18.75Q 24.773-20.23  25.503-21.61Q 26.223-22.99  27.403-24.07Q 28.573-25.15  30.243-25.79Q 31.923-26.44  34.223-26.44L 34.223-26.44Q 34.613-26.44  35.523-26.36Q 36.423-26.27  37.543-25.89Q 38.673-25.5  39.863-24.71Q 41.063-23.93  42.063-22.52Q 43.053-21.12  43.703-18.98Q 44.343-16.85  44.343-13.78L 44.343-13.78ZM 34.083-22.85L 34.083-22.85Q 32.463-22.73  31.103-22.08L 31.103-22.08Q 30.513-21.8  29.943-21.36Q 29.363-20.93  28.873-20.31Q 28.383-19.69  28.003-18.84Q 27.633-18  27.493-16.9L 27.493-16.9L 40.363-16.9Q 40.223-18.28  39.613-19.38Q 39.003-20.48  38.123-21.26Q 37.243-22.03  36.173-22.44Q 35.113-22.85  34.083-22.85ZM 65.857-13.15L 65.857-13.15Q 65.817-10.78  65.717-8.44L 65.717-8.44Q 65.667-7.43  65.627-6.33Q 65.577-5.23  65.517-4.11Q 65.457-3  65.377-1.92Q 65.297-0.84  65.227 0.09L 65.227 0.09L 62.017 0Q 62.067-0.68  62.087-1.34Q 62.107-1.99  62.107-2.65L 62.107-2.65Q 61.057-1.52  59.887-0.89Q 58.707-0.26  57.657 0.07L 57.657 0.07Q 56.437 0.47  55.247 0.59L 55.247 0.59Q 54.987 0.63  54.757 0.63Q 54.537 0.63  54.277 0.63L 54.277 0.63Q 52.637 0.63  51.137 0.18Q 49.637-0.28  48.477-1.22Q 47.317-2.16  46.627-3.57Q 45.937-4.99  45.937-6.91L 45.937-6.91Q 45.937-8.6  46.607-10.09Q 47.277-11.58  48.477-12.69Q 49.687-13.8  51.397-14.46Q 53.107-15.12  55.197-15.16L 55.197-15.16Q 55.267-15.16  55.997-15.12Q 56.717-15.07  57.757-14.82Q 58.807-14.58  60.007-14.05Q 61.217-13.52  62.247-12.59L 62.247-12.59Q 62.247-13.64  62.207-14.81Q 62.157-15.98  61.977-17.12Q 61.807-18.26  61.427-19.29Q 61.057-20.32  60.407-21.11Q 59.767-21.89  58.777-22.35Q 57.797-22.8  56.387-22.8L 56.387-22.8Q 55.287-22.8  54.377-22.38Q 53.457-21.96  52.757-21.23Q 52.057-20.51  51.587-19.51Q 51.117-18.52  50.887-17.37L 50.887-17.37L 46.947-18.63Q 47.227-19.97  47.757-21Q 48.277-22.03  48.947-22.8Q 49.617-23.58  50.377-24.13Q 51.137-24.68  51.887-25.05L 51.887-25.05Q 53.647-25.92  55.687-26.11L 55.687-26.11Q 58.497-26.11  60.447-25.27Q 62.387-24.42  63.597-22.78Q 64.807-21.14  65.327-18.73Q 65.857-16.31  65.857-13.15ZM 62.207-6.63L 62.207-6.63Q 62.207-7.1  62.227-7.56Q 62.247-8.02  62.247-8.44L 62.247-8.44Q 61.007-9.7  59.797-10.36Q 58.597-11.02  57.607-11.34L 57.607-11.34Q 56.487-11.72  55.427-11.77L 55.427-11.77Q 53.977-11.77  52.937-11.36Q 51.887-10.95  51.227-10.27Q 50.557-9.59  50.237-8.72Q 49.917-7.85  49.917-6.91L 49.917-6.91Q 49.917-5.95  50.277-5.18Q 50.627-4.41  51.267-3.87Q 51.917-3.33  52.837-3.04Q 53.767-2.74  54.917-2.74L 54.917-2.74Q 56.037-2.84  57.257-3.26L 57.257-3.26Q 58.317-3.63  59.587-4.42Q 60.867-5.2  62.207-6.63ZM 88.129-0.09L 84.919 0.09Q 84.729-3.47  84.549-6.32Q 84.379-9.16  84.239-11.18L 84.239-11.18Q 84.069-13.52  83.909-15.35L 83.909-15.35Q 83.719-18.19  83.189-19.63Q 82.669-21.07  81.849-21.07L 81.849-21.07Q 81.019-21.07  80.179-20.04Q 79.339-19.01  78.519-17.3Q 77.699-15.59  76.959-13.39Q 76.219-11.2  75.599-8.88Q 74.979-6.56  74.519-4.29Q 74.059-2.02  73.829-0.19L 73.829-0.19L 70.619-0.09Q 70.759-3.98  70.759-7.48L 70.759-7.48Q 70.759-11.13  70.639-14.17Q 70.519-17.2  70.379-19.41L 70.379-19.41Q 70.219-21.98  70.029-24.05L 70.029-24.05L 74.559-23.86L 74.559-14.44Q 75.099-15.98  75.519-17.04Q 75.939-18.09  76.219-18.75L 76.219-18.75Q 76.549-19.52  76.759-19.97L 76.759-19.97Q 77.369-21.12  78.099-22.02Q 78.819-22.92  79.609-23.54Q 80.389-24.16  81.199-24.49Q 82.009-24.82  82.759-24.82L 82.759-24.82Q 83.509-24.82  84.169-24.49Q 84.819-24.16  85.329-23.46Q 85.829-22.76  86.189-21.67Q 86.559-20.58  86.739-19.05L 86.739-19.05Q 87.119-16.52  87.399-13.52L 87.399-13.52Q 87.659-10.95  87.869-7.5Q 88.079-4.05  88.129-0.09L 88.129-0.09ZM 111.703-23.13L 111.703-23.13Q 111.612-21.16  110.933-19.5Q 110.252-17.84  109.153-16.48Q 108.043-15.12  106.612-14.09Q 105.192-13.05  103.602-12.35Q 102.023-11.65  100.362-11.3Q 98.692-10.95  97.153-10.95L 97.153-10.95Q 96.862-10.95  96.582-10.95Q 96.302-10.95  96.002-10.99L 96.002-10.99Q 95.862-8.2  95.772-5.45Q 95.692-2.7  95.623 0.09L 95.623 0.09L 92.112 0.09Q 92.252-4.78  92.353-9.62Q 92.463-14.46  92.463-19.38L 92.463-19.38Q 92.463-22.95  92.392-26.45Q 92.323-29.95  92.203-33.52L 92.203-33.52Q 93.332-33.96  94.573-34.23Q 95.813-34.5  96.972-34.64Q 98.132-34.78  99.112-34.82Q 100.102-34.85  100.713-34.85L 100.713-34.85Q 102.942-34.85  104.942-34.24Q 106.942-33.63  108.442-32.24Q 109.942-30.84  110.823-28.61Q 111.703-26.37  111.703-23.13ZM 97.192-31.55L 97.192-31.55Q 96.843-27.05  96.582-22.59Q 96.332-18.14  96.093-13.69L 96.093-13.69L 96.142-13.69Q 98.722-13.69  100.513-14.39Q 102.302-15.09  103.493-16.15Q 104.672-17.2  105.332-18.43Q 105.983-19.66  106.302-20.74Q 106.612-21.82  106.692-22.55Q 106.763-23.27  106.763-23.32L 106.763-23.32Q 106.763-23.58  106.713-24.3Q 106.662-25.03  106.453-25.98Q 106.243-26.93  105.813-27.96Q 105.373-28.99  104.602-29.85Q 103.832-30.7  102.653-31.27Q 101.483-31.83  99.793-31.83L 99.793-31.83Q 98.623-31.83  97.192-31.55ZM 135.093-22.85L 131.063-22.62Q 131.063-24.77  130.683-26.26Q 130.313-27.75  129.743-28.71Q 129.163-29.67  128.493-30.2Q 127.833-30.73  127.243-30.97Q 126.653-31.22  126.273-31.25Q 125.883-31.29  125.863-31.29L 125.863-31.29Q 124.243-31.29  122.903-30.41Q 121.573-29.53  120.623-27.74Q 119.673-25.95  119.143-23.24Q 118.613-20.53  118.613-16.9L 118.613-16.9Q 118.613-13.27  119.093-10.52Q 119.583-7.78  120.443-5.93Q 121.313-4.08  122.543-3.14Q 123.773-2.2  125.293-2.2L 125.293-2.2Q 126.443-2.3  127.433-3.05L 127.433-3.05Q 127.853-3.35  128.283-3.84Q 128.723-4.34  129.103-5.06Q 129.493-5.79  129.823-6.76Q 130.153-7.73  130.333-9.02L 130.333-9.02L 134.083-8.74Q 133.833-6.98  133.313-5.64Q 132.793-4.29  132.133-3.29Q 131.463-2.3  130.703-1.62Q 129.933-0.94  129.183-0.49L 129.183-0.49Q 127.403 0.54  125.343 0.68L 125.343 0.68Q 122.603 0.68  120.453-0.43Q 118.313-1.55  116.843-3.74Q 115.383-5.93  114.623-9.19Q 113.863-12.45  113.863-16.71L 113.863-16.71Q 113.863-25.59  116.883-30.13Q 119.903-34.66  126.213-34.66L 126.213-34.66Q 126.283-34.66  126.693-34.64Q 127.103-34.62  127.733-34.48Q 128.363-34.34  129.163-34.04Q 129.963-33.75  130.783-33.19Q 131.603-32.63  132.373-31.78Q 133.153-30.94  133.763-29.68Q 134.363-28.43  134.733-26.74Q 135.093-25.05  135.093-22.85L 135.093-22.85ZM 157.174-13.97L 157.174-13.97Q 157.174-10.59  156.384-7.92Q 155.604-5.25  154.254-3.39Q 152.904-1.52  151.074-0.53Q 149.254 0.47  147.184 0.47L 147.184 0.47Q 145.104 0.47  143.274-0.56Q 141.444-1.59  140.084-3.49Q 138.724-5.39  137.944-8.05Q 137.154-10.71  137.154-13.97L 137.154-13.97Q 137.154-16.76  137.844-19.07Q 138.544-21.38  139.844-23.04Q 141.144-24.7  143.004-25.63Q 144.864-26.55  147.184-26.55L 147.184-26.55Q 149.764-26.55  151.644-25.63Q 153.514-24.7  154.744-23.04Q 155.974-21.38  156.574-19.07Q 157.174-16.76  157.174-13.97ZM 153.544-13.92L 153.544-13.92Q 153.544-16.03  153.164-17.77Q 152.794-19.5  152.004-20.75Q 151.214-22.01  150.024-22.69Q 148.824-23.37  147.184-23.37L 147.184-23.37Q 145.714-23.37  144.524-22.69Q 143.344-22.01  142.524-20.75Q 141.704-19.5  141.254-17.77Q 140.814-16.03  140.814-13.92L 140.814-13.92Q 140.814-11.46  141.314-9.47Q 141.824-7.48  142.674-6.05Q 143.534-4.62  144.694-3.84Q 145.854-3.07  147.184-3.07L 147.184-3.07Q 148.504-3.07  149.664-3.82Q 150.824-4.57  151.674-5.98Q 152.534-7.38  153.034-9.39Q 153.544-11.39  153.544-13.92ZM 176.907-33.7L 180.278-33.84L 180.278-0.42L 177.067-0.42L 177.067-4.08Q 176.597-3.23  176.048-2.6Q 175.498-1.97  174.917-1.5Q 174.327-1.03  173.727-0.71Q 173.137-0.4  172.567-0.19L 172.567-0.19Q 171.278 0.3  169.898 0.38L 169.898 0.38Q 167.718 0.38  165.847-0.59Q 163.968-1.55  162.597-3.33Q 161.227-5.11  160.458-7.65Q 159.678-10.2  159.678-13.34L 159.678-13.34Q 159.678-16.01  160.278-18.38Q 160.877-20.74  162.007-22.52Q 163.148-24.3  164.778-25.35Q 166.407-26.39  168.468-26.39L 168.468-26.39Q 170.208-26.32  171.798-25.76L 171.798-25.76Q 172.477-25.52  173.188-25.15Q 173.907-24.77  174.588-24.22Q 175.267-23.67  175.868-22.95Q 176.458-22.22  176.907-21.26L 176.907-21.26L 176.907-33.7ZM 176.718-12.77L 176.718-12.77Q 176.648-14.72  176.257-16.23Q 175.877-17.74  175.287-18.87Q 174.708-19.99  173.958-20.75Q 173.208-21.52  172.428-21.98Q 171.657-22.45  170.887-22.65Q 170.107-22.85  169.477-22.85L 169.477-22.85Q 167.817-22.85  166.618-22.1Q 165.417-21.35  164.648-19.99Q 163.877-18.63  163.507-16.73Q 163.148-14.84  163.148-12.54L 163.148-12.54Q 163.148-9.82  163.868-7.93Q 164.577-6.05  165.648-4.89Q 166.708-3.73  167.968-3.21Q 169.218-2.7  170.298-2.7L 170.298-2.7Q 171.468-2.7  172.618-3.27Q 173.768-3.84  174.678-5.07Q 175.597-6.3  176.157-8.2Q 176.718-10.1  176.718-12.77ZM 204.749-13.78L 187.709-13.78Q 187.659-13.52  187.689-13.28Q 187.709-13.03  187.709-12.77L 187.709-12.77Q 187.709-10.43  188.179-8.82Q 188.649-7.22  189.359-6.16Q 190.079-5.11  190.929-4.55Q 191.789-3.98  192.539-3.71Q 193.289-3.45  193.829-3.4Q 194.369-3.35  194.489-3.35L 194.489-3.35Q 194.459-3.35  194.809-3.39Q 195.159-3.42  195.739-3.57Q 196.309-3.73  197.039-4.05Q 197.769-4.38  198.479-4.98Q 199.199-5.58  199.829-6.48Q 200.459-7.38  200.859-8.7L 200.859-8.7L 203.739-7.88Q 203.389-6.42  202.809-5.3Q 202.219-4.17  201.499-3.33Q 200.789-2.48  199.979-1.89Q 199.169-1.29  198.399-0.91L 198.399-0.91Q 196.569 0.02  194.489 0.19L 194.489 0.19Q 192.419 0.19  190.839-0.43Q 189.259-1.05  188.109-2.11Q 186.959-3.16  186.189-4.52Q 185.409-5.88  184.959-7.37Q 184.499-8.86  184.299-10.35Q 184.099-11.84  184.099-13.15L 184.099-13.15Q 184.099-14.37  184.239-15.82Q 184.379-17.27  184.779-18.75Q 185.179-20.23  185.909-21.61Q 186.629-22.99  187.809-24.07Q 188.979-25.15  190.649-25.79Q 192.329-26.44  194.629-26.44L 194.629-26.44Q 195.019-26.44  195.929-26.36Q 196.829-26.27  197.949-25.89Q 199.079-25.5  200.269-24.71Q 201.469-23.93  202.469-22.52Q 203.459-21.12  204.109-18.98Q 204.749-16.85  204.749-13.78L 204.749-13.78ZM 194.489-22.85L 194.489-22.85Q 192.869-22.73  191.509-22.08L 191.509-22.08Q 190.919-21.8  190.349-21.36Q 189.769-20.93  189.279-20.31Q 188.789-19.69  188.409-18.84Q 188.039-18  187.899-16.9L 187.899-16.9L 200.769-16.9Q 200.629-18.28  200.019-19.38Q 199.409-20.48  198.529-21.26Q 197.649-22.03  196.579-22.44Q 195.519-22.85  194.489-22.85Z"></path><path transform="matrix(1.184357762336731, 0, 0, 0.6577838063240051, 254.6742401123047, 236.66006469726562)" fill="url(&quot;#o_fcb2i77jl_5&quot;)" stroke="#0986FF" stroke-width="0px" data-type="rect" data-x="0" data-y="84.525" data-width="176.742" data-height="7.219" d="M0 84.525H176.742 V91.744 H0 Z" data-uid="o_fcb2i77jl_26"></path><path transform="matrix(0.5471264719963074, 0, 0, 0.6577838063240051, 157.97402954101562, 236.66006469726562)" fill="url(&quot;#o_fcb2i77jl_6&quot;)" stroke="#0986FF" stroke-width="0px" data-type="rect" data-x="0" data-y="84.525" data-width="176.742" data-height="7.219" d="M0 84.525H176.742 V91.744 H0 Z" data-uid="o_fcb2i77jl_27"></path></svg>